<svg width="50" height="70" fill="none" xmlns="http://www.w3.org/2000/svg"><path fill-rule="evenodd" clip-rule="evenodd" d="M10.563 17.133l1.957-.706c2.285-.824 3.911-3.049 3.911-5.648 0-3.308-2.627-5.989-5.868-5.989-3.241 0-5.868 2.681-5.868 5.989 0 2.6 1.626 4.824 3.911 5.648l1.957.706zm14.002 35.193l-1.903.845c-2.086.926-3.53 3.044-3.53 5.495 0 3.307 2.627 5.988 5.868 5.988 3.241 0 5.868-2.681 5.868-5.988 0-2.745-1.813-5.07-4.293-5.771l-2.01-.57zm14.872-35.193l1.957-.706c2.285-.824 3.911-3.049 3.911-5.648 0-3.308-2.627-5.989-5.868-5.989-3.241 0-5.868 2.681-5.868 5.989 0 2.6 1.626 4.824 3.912 5.648l1.956.706zm-25.353 3.81v4.476c0 2.048 1.026 3.954 2.72 5.053l7.719 5.01 8.135-4.122c1.996-1.011 3.259-3.09 3.259-5.363v-5.053c-4.103-1.48-7.043-5.472-7.043-10.165C28.874 4.826 33.604 0 39.437 0 45.271 0 50 4.826 50 10.779c0 4.692-2.939 8.685-7.041 10.165v5.053c0 5.003-2.778 9.574-7.17 11.799l-7.959 4.032v6.45c4.46 1.263 7.733 5.435 7.733 10.388 0 5.953-4.73 10.778-10.563 10.778-5.834 0-10.563-4.825-10.563-10.778 0-4.425 2.613-8.228 6.351-9.888v-7.204l-7.764-5.039c-3.726-2.418-5.982-6.61-5.982-11.116v-4.475C2.939 19.464 0 15.472 0 10.779 0 4.826 4.73 0 10.563 0c5.834 0 10.563 4.826 10.563 10.779 0 4.693-2.94 8.685-7.042 10.165z" fill="url(#paint0_angular)"/><defs><radialGradient id="paint0_angular" cx="0" cy="0" r="1" gradientUnits="userSpaceOnUse" gradientTransform="rotate(88.711 11.719 11.985) scale(69.462 46.1206)"><stop stop-color="#B73030"/><stop offset=".101" stop-color="#E9E249"/><stop offset=".907" stop-color="#DD8C12"/></radialGradient></defs></svg>