<svg width="28" height="28" fill="none" xmlns="http://www.w3.org/2000/svg"><g filter="url(#filter0_d)"><path d="M13.96 4A9.97 9.97 0 004 13.96C4 19.46 8.47 24 13.96 24A10.1 10.1 0 0024 13.96C24 8.46 19.45 4 13.96 4zm4.18 12.9c-.8 0-1.49-.4-1.91-1a2.91 2.91 0 01-5.12-1.94 2.93 2.93 0 012.93-2.93c.66 0 1.27.23 1.76.6v-.01a.59.59 0 111.17 0v2.93a1.17 1.17 0 002.34 0c0-3.92-2.6-5.86-5.27-5.86a5.28 5.28 0 103.2 9.46c.62-.47 1.33.46.72.93a6.45 6.45 0 11-3.92-11.56c3.24 0 6.44 2.38 6.44 7.03a2.34 2.34 0 01-2.34 2.34z" fill="url(#paint0_linear)"/><path d="M16.94 17.75h0a4.78 4.78 0 11.39-7.25 5.5 5.5 0 011.48 4.05.67.67 0 01-1.34 0v-.01 0-.02 0-.01 0-.02 0-.01 0-.02 0-.01 0-.02 0-.01 0-.02 0-.02 0-.01 0-.02 0-.02 0-.01 0-.02 0-.02 0-.02 0-.02 0-.02 0-.02 0-.02 0-.02 0-.02 0-.02 0-.02 0-.01 0-.02 0-.02 0-.01 0-.02 0V14v0-.01 0-.02 0-.01 0-.02 0-.01 0-.02 0-.01 0-.01 0-.02 0-.01 0-.02 0-.01 0-.01 0-.02 0-.01 0-.01 0-.01 0-.02 0-.01 0-.01 0-.01 0-.02 0-.01 0-.01 0-.01 0-.01 0-.01 0-.01 0-.02 0-.01 0-.01 0-.01 0-.01 0-.01 0-.01 0-.01 0-.01 0-.01 0-.01 0-.01 0-.01 0-.01 0-.02 0-.01 0-.01 0-.01 0-.01 0-.01 0-.01 0-.01 0-.01 0-.01 0-.01 0-.01 0-.01 0-.01 0-.01 0-.01 0-.01 0-.01 0-.01 0-.01 0-.01 0-.01 0-.01 0-.01 0-.01 0-.01 0-.01 0-.01 0-.01 0-.01 0-.01 0-.01 0-.01 0-.01 0-.01 0-.01 0-.01 0-.01 0-.01 0-.01 0-.01 0-.01 0-.01 0-.01 0-.01 0-.01 0V13v0-.01 0-.01 0-.01 0-.01 0-.01 0-.01 0-.01 0-.01 0-.01 0-.01 0-.01 0-.01 0-.01 0-.01 0-.01 0-.01 0-.01 0-.01 0-.01 0-.01 0-.01 0-.01 0-.01 0-.01 0-.01 0-.01 0-.01 0-.01 0-.01 0-.01 0-.01 0-.01 0-.01 0-.01 0-.01 0-.01 0-.01 0-.01 0-.01 0-.01 0-.02 0-.01 0-.01 0-.01 0-.01 0-.01 0-.01 0-.01 0-.02 0-.01 0-.01 0-.01 0-.01 0-.02 0-.01 0-.01 0-.01 0-.02 0-.01 0-.01 0-.01 0-.02 0-.01 0-.01 0-.02 0-.01 0-.02 0-.01 0-.02 0-.01 0-.02 0-.01 0-.02 0-.01 0-.02 0-.02 0-.01 0-.02 0-.02 0-.01 0-.02 0-.02 0V12v0-.02 0-.02 0-.02 0-.02 0-.02 0-.02 0-.02 0-.02 0-.01 0-.02 0-.02 0-.01 0-.02 0-.02 0-.01 0-.02 0-.01 0-.03 0-.03 0-.02 0a1.09 1.09 0 00-1.9-.72 3.43 3.43 0 10-1.53 6.49c.82 0 1.57-.3 2.15-.78a2.85 2.85 0 004.79-2.07c0-2.44-.84-4.33-2.15-5.6a6.95 6.95 0 10-.56 10.54h0a1.06 1.06 0 00.19-1.52 1.06 1.06 0 00-1.52-.2zM4.5 13.96a9.47 9.47 0 019.46-9.46 9.54 9.54 0 019.54 9.46 9.6 9.6 0 01-9.54 9.54 9.54 9.54 0 01-9.46-9.54z" stroke="#4B5CF7" stroke-opacity=".78"/><rect x="4.5" y="4.5" width="19" height="19" rx="9.5" stroke="#FFEDAD"/></g><defs><linearGradient id="paint0_linear" x1="14" y1="4" x2="14" y2="24" gradientUnits="userSpaceOnUse"><stop stop-color="#FFB9FC"/><stop offset="1" stop-color="#64D985" stop-opacity=".72"/></linearGradient><filter id="filter0_d" x="0" y="0" width="28" height="28" filterUnits="userSpaceOnUse" color-interpolation-filters="sRGB"><feFlood flood-opacity="0" result="BackgroundImageFix"/><feColorMatrix in="SourceAlpha" values="0 0 0 0 0 0 0 0 0 0 0 0 0 0 0 0 0 0 127 0"/><feOffset/><feGaussianBlur stdDeviation="2"/><feColorMatrix values="0 0 0 0 1 0 0 0 0 1 0 0 0 0 1 0 0 0 0.79 0"/><feBlend in2="BackgroundImageFix" result="effect1_dropShadow"/><feBlend in="SourceGraphic" in2="effect1_dropShadow" result="shape"/></filter></defs></svg>