<svg width="24" height="24" fill="none" xmlns="http://www.w3.org/2000/svg"><path d="M22.39 5.977a11.947 11.947 0 00-4.367-4.368C16.184.536 14.177 0 12 0 9.823 0 7.815.537 5.977 1.61a11.946 11.946 0 00-4.368 4.367C.536 7.815 0 9.823 0 11.999c0 2.615.763 4.967 2.289 7.055 1.526 2.088 3.497 3.534 5.914 4.336.281.052.49.015.625-.11a.611.611 0 00.203-.468l-.008-.844c-.005-.531-.008-.995-.008-1.39l-.36.062c-.228.042-.517.06-.866.055a6.618 6.618 0 01-1.086-.11 2.427 2.427 0 01-1.047-.468 1.982 1.982 0 01-.688-.96l-.156-.36A3.904 3.904 0 004.32 18c-.224-.292-.45-.49-.68-.594l-.109-.078a1.146 1.146 0 01-.203-.188.859.859 0 01-.14-.218c-.032-.073-.006-.134.077-.18.084-.047.235-.07.454-.07l.312.046c.208.042.466.167.773.375.308.209.56.48.758.813.24.427.529.752.867.976.339.224.68.336 1.024.336.343 0 .64-.026.89-.078.25-.052.485-.13.703-.234.094-.698.35-1.235.766-1.61a10.705 10.705 0 01-1.602-.281 6.373 6.373 0 01-1.468-.61 4.207 4.207 0 01-1.258-1.046c-.333-.417-.607-.964-.82-1.641-.214-.677-.32-1.458-.32-2.344 0-1.26.411-2.333 1.234-3.219-.386-.947-.35-2.01.11-3.187.301-.094.75-.023 1.343.211.594.234 1.028.435 1.305.602.276.166.497.307.664.422.969-.271 1.969-.407 3-.407 1.03 0 2.031.136 3 .407l.594-.375c.406-.25.885-.48 1.437-.688.552-.208.974-.266 1.266-.172.468 1.177.51 2.24.125 3.188.822.885 1.234 1.958 1.234 3.218 0 .886-.107 1.67-.32 2.352-.214.682-.49 1.229-.828 1.64-.339.412-.76.758-1.266 1.04a6.388 6.388 0 01-1.469.609c-.474.125-1.007.219-1.601.282.541.468.812 1.208.812 2.218v3.296c0 .188.065.344.196.47.13.124.335.16.617.108 2.417-.802 4.388-2.247 5.914-4.335C23.237 16.965 24 14.613 24 11.998c0-2.176-.538-4.184-1.61-6.022z" fill="url(#paint0_radial)"/><defs><radialGradient id="paint0_radial" cx="0" cy="0" r="1" gradientUnits="userSpaceOnUse" gradientTransform="matrix(0 11.7064 -11.9999 0 12 11.706)"><stop stop-color="#6982DE"/><stop offset="1" stop-color="#974735" stop-opacity=".87"/></radialGradient></defs></svg>