<svg width="19" height="16" fill="none" xmlns="http://www.w3.org/2000/svg"><path d="M.336 7.672l4.378 1.58 1.694 5.271a.522.522 0 00.819.239l2.44-1.925a.748.748 0 01.888-.024l4.401 3.091c.303.213.732.053.808-.302l3.225-15c.083-.387-.31-.71-.691-.568L.33 6.738a.494.494 0 00.006.934zm5.799.739l8.556-5.097c.154-.091.312.11.18.228L7.81 9.891a1.4 1.4 0 00-.454.847l-.24 1.724c-.032.23-.367.253-.432.03l-.925-3.144a.821.821 0 01.376-.937z" fill="url(#paint0_radial)"/><defs><radialGradient id="paint0_radial" cx="0" cy="0" r="1" gradientUnits="userSpaceOnUse" gradientTransform="matrix(0 17.2282 -20.4585 0 9.5 2.297)"><stop stop-color="#61FF84"/><stop offset="1" stop-color="#C3EFDA"/></radialGradient></defs></svg>