<svg width="50" height="50" fill="none" xmlns="http://www.w3.org/2000/svg"><path d="M25 0l7.972 16.102L50 19.098 37.9 32.046 40.45 50 25 41.9 9.55 50l2.55-17.954L0 19.098l17.028-2.996L25 0z" fill="url(#paint0_diamond)"/><path d="M25 .563l7.748 15.65.056.113.125.022 16.573 2.917-11.785 12.61-.082.088.017.118 2.483 17.471-15.019-7.873-.116-.061-.116.06-15.019 7.874 2.483-17.47.017-.12-.082-.087L.498 19.265l16.573-2.917.125-.022.056-.113L25 .563z" stroke="#FECCF0" stroke-opacity=".78" stroke-width=".5"/><defs><radialGradient id="paint0_diamond" cx="0" cy="0" r="1" gradientUnits="userSpaceOnUse" gradientTransform="rotate(94.289 8.557 15.848) scale(60.1685 92.4329)"><stop stop-color="#198FA9"/><stop offset=".434" stop-color="#BA5636"/><stop offset=".852" stop-color="#B9BC3C"/></radialGradient></defs></svg>