<svg width="321" height="187" fill="none" xmlns="http://www.w3.org/2000/svg"><path d="M1.78 183v-12.8h4.18c1.4 0 2.43.29 3.13.86.7.58 1.06 1.43 1.06 2.55 0 .6-.17 1.13-.51 1.6-.34.45-.8.8-1.4 1.06a2.97 2.97 0 012.24 3.04 3.4 3.4 0 01-1.1 2.7c-.75.66-1.8.99-3.16.99H1.78zm1.69-5.99v4.61h2.78c.79 0 1.4-.2 1.86-.6.45-.42.68-.98.68-1.7 0-1.53-.84-2.3-2.51-2.3H3.47zm0-1.35H6c.74 0 1.33-.18 1.77-.55.45-.37.67-.87.67-1.5 0-.7-.2-1.22-.62-1.54-.4-.32-1.03-.48-1.87-.48h-2.5v4.07zm11.04 1.1h2.47a3.8 3.8 0 012.56.85c.63.55.94 1.3.94 2.24 0 .95-.32 1.71-.97 2.29-.64.57-1.5.86-2.6.86H12.9v-9.51h1.62v3.28zm9.36 6.24h-1.63v-9.51h1.63V183zm-9.36-4.9v3.57h2.42a2 2 0 001.42-.46c.33-.32.5-.75.5-1.3 0-.52-.17-.95-.5-1.29a1.84 1.84 0 00-1.36-.52h-2.48zm20.61 5.08a4.16 4.16 0 01-3.14-1.27 4.73 4.73 0 01-1.22-3.4v-.3c0-.94.18-1.78.54-2.52.36-.75.87-1.33 1.51-1.74a3.8 3.8 0 012.11-.64c1.24 0 2.2.41 2.88 1.23.69.81 1.03 1.98 1.03 3.5v.67H32.4c.02.94.3 1.7.82 2.28.53.57 1.2.86 2 .86.58 0 1.06-.12 1.46-.35.4-.24.75-.55 1.05-.94l.99.78a4 4 0 01-3.59 1.84zm-.2-8.53c-.65 0-1.2.24-1.65.72a3.46 3.46 0 00-.83 2h4.77v-.12a3.08 3.08 0 00-.67-1.91c-.4-.46-.94-.69-1.62-.69zm7.48-1.16v8.18h3.48v-8.18h1.63v8.18h3.47v-8.18h1.63v8.18h1.34l-.16 4.15h-1.46V183H40.77v-9.51h1.63zm17.26 9.69a4.16 4.16 0 01-3.14-1.27 4.73 4.73 0 01-1.22-3.4v-.3c0-.94.18-1.78.54-2.52.36-.75.87-1.33 1.51-1.74a3.8 3.8 0 012.11-.64c1.24 0 2.2.41 2.88 1.23.69.81 1.03 1.98 1.03 3.5v.67h-6.44c.02.94.3 1.7.82 2.28.52.57 1.2.86 2 .86.58 0 1.06-.12 1.46-.35.4-.24.75-.55 1.05-.94l.99.78a4 4 0 01-3.59 1.84zm-.2-8.53c-.66 0-1.2.24-1.65.72a3.46 3.46 0 00-.83 2h4.77v-.12a3.08 3.08 0 00-.67-1.91c-.4-.46-.94-.69-1.62-.69zm-2.84-3.7c0-.26.08-.48.24-.66.16-.18.4-.27.72-.27.32 0 .56.09.72.27.16.18.25.4.25.66s-.09.48-.25.66c-.16.17-.4.26-.72.26-.32 0-.56-.09-.72-.26a.95.95 0 01-.24-.66zm3.78.02c0-.27.08-.49.24-.67.16-.18.4-.27.72-.27.32 0 .56.09.72.27.16.18.25.4.25.67 0 .26-.09.48-.25.66-.16.17-.4.26-.72.26-.32 0-.56-.09-.72-.26a.95.95 0 01-.24-.66zM77.5 183h-1.63v-4.06H71.5V183h-1.63v-9.51h1.63v4.12h4.37v-4.12h1.63V183zm6.56.18a4.16 4.16 0 01-3.14-1.27 4.73 4.73 0 01-1.22-3.4v-.3c0-.94.18-1.78.54-2.52.36-.75.87-1.33 1.51-1.74a3.8 3.8 0 012.1-.64c1.25 0 2.2.41 2.9 1.23.68.81 1.02 1.98 1.02 3.5v.67h-6.44c.02.94.3 1.7.82 2.28.52.57 1.2.86 2 .86a2.9 2.9 0 002.5-1.29l1 .78a4 4 0 01-3.59 1.84zm-.2-8.53c-.66 0-1.2.24-1.65.72a3.46 3.46 0 00-.83 2h4.76v-.12a3.08 3.08 0 00-.66-1.91c-.4-.46-.94-.69-1.62-.69zm10.19 7.02l.56-.7c.63-.81 1-2.04 1.08-3.68l.15-3.8h6.13v8.18h1.22v4.13h-1.63V183h-6.64v2.8H93.3v-4.13h.75zm1.92 0h4.37V175H97.4l-.1 2.27c-.1 1.9-.54 3.36-1.34 4.41zm8.59-3.51c0-.93.18-1.77.54-2.52a4.2 4.2 0 011.53-1.72c.66-.4 1.4-.6 2.24-.6a4 4 0 013.14 1.34c.8.9 1.2 2.09 1.2 3.58v.11c0 .93-.17 1.76-.53 2.5a4.02 4.02 0 01-3.79 2.33 4.01 4.01 0 01-3.14-1.35c-.8-.9-1.2-2.08-1.2-3.56v-.11zm1.63.2c0 1.04.25 1.9.73 2.53.5.64 1.15.96 1.97.96.83 0 1.48-.32 1.97-.97.49-.65.73-1.56.73-2.72 0-1.05-.25-1.89-.75-2.53a2.35 2.35 0 00-1.97-.98c-.8 0-1.45.32-1.94.96-.5.64-.74 1.55-.74 2.74zm13.24-4.33c1.2 0 2.15.4 2.86 1.2.72.8 1.08 1.86 1.08 3.17v.14c0 .9-.17 1.7-.51 2.41a3.99 3.99 0 01-3.73 2.23c-1.28 0-2.3-.43-3.08-1.28a4.9 4.9 0 01-1.17-3.44v-.79c0-2 .37-3.58 1.1-4.76a4.67 4.67 0 013.3-2.15 4.37 4.37 0 001.65-.54c.29-.21.43-.5.43-.87h1.34c0 .73-.17 1.3-.5 1.71-.33.41-.86.7-1.59.88l-1.2.27a4.1 4.1 0 00-2.19 1.16c-.48.54-.8 1.26-.94 2.16a4 4 0 013.15-1.5zm-.32 1.34c-.8 0-1.43.27-1.9.81-.46.53-.7 1.27-.7 2.22v.14c0 1.02.23 1.83.7 2.43.48.6 1.12.89 1.92.89.8 0 1.45-.3 1.92-.9.47-.6.7-1.47.7-2.62 0-.9-.24-1.61-.71-2.15a2.4 2.4 0 00-1.93-.82zm11.96 7.63a3.4 3.4 0 01-.22-1 3.63 3.63 0 01-2.71 1.18c-.94 0-1.7-.27-2.31-.8a2.6 2.6 0 01-.9-2.02c0-.99.38-1.76 1.13-2.3a5.32 5.32 0 013.18-.83h1.58v-.74c0-.57-.17-1.02-.51-1.36-.34-.34-.84-.5-1.5-.5-.58 0-1.07.14-1.46.43-.4.3-.6.65-.6 1.07h-1.63c0-.48.17-.94.5-1.37.34-.45.8-.8 1.38-1.06a4.64 4.64 0 011.9-.39c1.1 0 1.96.28 2.58.83a3 3 0 01.97 2.26v4.38c0 .87.1 1.56.33 2.08v.14h-1.7zm-2.7-1.24a2.82 2.82 0 002.45-1.42v-1.95h-1.28c-1.99 0-2.98.58-2.98 1.75 0 .5.17.9.5 1.19.35.29.78.43 1.32.43zm6.77 1.24v-9.51h3.71c1.27 0 2.24.22 2.91.67a2.17 2.17 0 011.02 1.94c0 .44-.13.84-.4 1.2a2.4 2.4 0 01-1.16.8c.57.14 1.03.4 1.38.8.35.39.52.86.52 1.4a2.3 2.3 0 01-.96 2c-.64.47-1.55.7-2.72.7h-4.3zm1.63-4.18v2.87h2.69c.68 0 1.19-.13 1.52-.38.34-.25.5-.6.5-1.06 0-.95-.69-1.43-2.08-1.43h-2.63zm0-1.3h2.1c1.52 0 2.28-.44 2.28-1.33 0-.9-.72-1.35-2.16-1.38h-2.22v2.71zm14.66-4.03h1.63V183h-1.63v-6.94l-4.39 6.94h-1.62v-9.51h1.62v6.94l4.39-6.94zm12.03 0V183h-1.63v-8.16h-3.24l-.2 3.56c-.1 1.63-.37 2.8-.82 3.5-.44.7-1.14 1.07-2.1 1.1h-.65v-1.43l.47-.04c.53-.06.9-.36 1.13-.91.23-.55.38-1.57.44-3.06l.18-4.07h6.42zm8.76 0h1.63V183h-1.63v-6.94l-4.38 6.94h-1.63v-9.51h1.63v6.94l4.38-6.94zM188.7 183h-1.62v-4.06h-4.37V183h-1.63v-9.51h1.63v4.12h4.37v-4.12h1.63V183zm8.78-9.51h1.62V183h-1.62v-6.94l-4.39 6.94h-1.63v-9.51h1.63v6.94l4.39-6.94zm8.27 4.67c0-.93.18-1.77.54-2.52a4.2 4.2 0 011.53-1.72c.66-.4 1.4-.6 2.24-.6a4 4 0 013.14 1.34c.8.9 1.2 2.09 1.2 3.58v.11c0 .93-.17 1.76-.53 2.5a4 4 0 01-3.79 2.33 4.01 4.01 0 01-3.14-1.35c-.8-.9-1.2-2.08-1.2-3.56v-.11zm1.63.2c0 1.04.25 1.9.73 2.53.5.64 1.15.96 1.97.96.83 0 1.48-.32 1.97-.97.49-.65.73-1.56.73-2.72 0-1.05-.25-1.89-.75-2.53a2.35 2.35 0 00-1.97-.98c-.8 0-1.45.32-1.94.96-.5.64-.74 1.55-.74 2.74zm8.35 3.31l.56-.7c.64-.81 1-2.04 1.09-3.68l.14-3.8h6.13v8.18h1.22v4.13h-1.62V183h-6.64v2.8h-1.63l.01-4.13h.74zm1.93 0H222V175h-2.92l-.1 2.27c-.1 1.9-.55 3.36-1.34 4.41zm16.78 1.33h-1.62v-4.06h-4.37V183h-1.63v-9.51h1.63v4.12h4.37v-4.12h1.62V183zm2.2-4.84c0-.93.17-1.77.54-2.52a4.2 4.2 0 011.53-1.72c.65-.4 1.4-.6 2.24-.6a4 4 0 013.13 1.34c.8.9 1.2 2.09 1.2 3.58v.11c0 .93-.17 1.76-.53 2.5a4 4 0 01-3.78 2.33 4.01 4.01 0 01-3.14-1.35c-.8-.9-1.2-2.08-1.2-3.56v-.11zm1.63.2c0 1.04.24 1.9.73 2.53.49.64 1.14.96 1.97.96.82 0 1.48-.32 1.96-.97.49-.65.73-1.56.73-2.72 0-1.05-.25-1.89-.74-2.53a2.35 2.35 0 00-1.97-.98c-.8 0-1.45.32-1.94.96-.5.64-.74 1.55-.74 2.74zm15.21-4.87h1.63V183h-1.63v-6.94L249.1 183h-1.63v-9.51h1.63v6.94l4.38-6.94zm.44-3.46c0 .7-.24 1.28-.73 1.71-.48.43-1.11.64-1.9.64a2.7 2.7 0 01-1.9-.65c-.5-.43-.73-1-.73-1.7h1.32c0 .4.11.73.34.96.22.23.54.35.97.35.41 0 .73-.12.96-.35.23-.22.35-.55.35-.96h1.32zm13.5 6.06c0-.44-.18-.8-.52-1.05-.34-.27-.8-.4-1.4-.4a2.3 2.3 0 00-1.44.45c-.38.3-.57.65-.57 1.06h-1.62c0-.83.35-1.5 1.04-2.04.7-.52 1.56-.79 2.6-.79 1.1 0 1.98.24 2.6.72.62.48.93 1.16.93 2.04 0 .43-.13.82-.39 1.18s-.62.64-1.1.85c1.1.38 1.66 1.12 1.66 2.22 0 .87-.33 1.56-1 2.07a4.4 4.4 0 01-2.7.77c-1.1 0-2-.27-2.72-.8a2.6 2.6 0 01-1.06-2.18h1.61c0 .46.2.86.62 1.2.41.32.93.49 1.54.49.63 0 1.13-.15 1.5-.44.39-.28.58-.66.58-1.11 0-.54-.16-.92-.49-1.14-.31-.24-.8-.36-1.48-.36h-1.63v-1.37h1.77c1.1-.03 1.66-.48 1.66-1.37zm9.77 6.91a3.6 3.6 0 01-.23-1 3.63 3.63 0 01-2.7 1.18c-.94 0-1.71-.27-2.31-.8a2.6 2.6 0 01-.9-2.02c0-.99.38-1.76 1.13-2.3a5.32 5.32 0 013.18-.83h1.58v-.74c0-.57-.17-1.02-.51-1.36-.34-.34-.84-.5-1.5-.5-.58 0-1.07.14-1.46.43-.4.3-.6.65-.6 1.07h-1.63c0-.48.17-.94.5-1.37.34-.45.8-.8 1.38-1.06a4.64 4.64 0 011.9-.39c1.1 0 1.96.28 2.58.83a3 3 0 01.97 2.26v4.38c0 .87.1 1.56.33 2.08v.14h-1.7zm-2.7-1.24c.51 0 1-.13 1.46-.4.45-.26.78-.6.99-1.02v-1.95h-1.28c-1.99 0-2.98.58-2.98 1.75 0 .5.17.9.5 1.19.35.29.78.43 1.31.43zm6.54-.09l.57-.7c.63-.81.99-2.04 1.08-3.68l.15-3.8h6.12v8.18h1.23v4.13h-1.63V183h-6.64v2.8h-1.62v-4.13h.74zm1.93 0h4.37V175h-2.93l-.1 2.27c-.1 1.9-.54 3.36-1.34 4.41zm14.89 1.33c-.1-.19-.17-.52-.23-1a3.63 3.63 0 01-2.7 1.18c-.95 0-1.72-.27-2.32-.8a2.6 2.6 0 01-.9-2.02c0-.99.38-1.76 1.13-2.3a5.32 5.32 0 013.18-.83h1.58v-.74c0-.57-.17-1.02-.5-1.36-.35-.34-.85-.5-1.51-.5-.58 0-1.07.14-1.46.43-.4.3-.59.65-.59 1.07h-1.63c0-.48.17-.94.5-1.37.34-.45.8-.8 1.37-1.06a4.64 4.64 0 011.9-.39c1.1 0 1.96.28 2.58.83.62.55.95 1.3.97 2.26v4.38c0 .87.11 1.56.33 2.08v.14h-1.7zm-2.7-1.24c.5 0 1-.13 1.45-.4.46-.26.79-.6 1-1.02v-1.95h-1.28c-2 0-2.99.58-2.99 1.75 0 .5.17.9.51 1.19.34.29.78.43 1.31.43zm13.8 1.24h-1.64v-3.44a8.9 8.9 0 01-2.2.28c-1.18 0-2.1-.3-2.72-.92a3.53 3.53 0 01-.95-2.6v-2.84h1.63v2.9c.03 1.41.71 2.12 2.05 2.12.75 0 1.48-.1 2.2-.28v-4.73h1.63V183zm8.76-9.51h1.63V183h-1.63v-6.94l-4.38 6.94h-1.63v-9.51h1.63v6.94l4.38-6.94z" fill="#FFFDFD"/><path d="M216.7 162.6H113.2a5.2 5.2 0 01-5.2-5.2V17.14a5.2 5.2 0 015.2-5.2h103.5a5.2 5.2 0 015.2 5.2V157.4a5.2 5.2 0 01-5.2 5.2z" fill="#DDAD74"/><path d="M108 48.64V157.4a5.2 5.2 0 005.2 5.2h103.5a5.2 5.2 0 005.2-5.2v-21.47L108 48.64z" fill="#A99A84"/><path d="M213.16 155.65h-96.41a2.12 2.12 0 01-2.13-2.12V21c0-1.17.95-2.12 2.13-2.12h96.41c1.17 0 2.12.95 2.12 2.12v132.53c0 1.17-.95 2.12-2.12 2.12z" fill="#F3F4F6"/><path d="M173.59 9.08l.02-.43a8.66 8.66 0 00-17.32 0l.02.43H143.6v13.2h42.72V9.07H173.6z" fill="#D67771"/><path d="M143.6 9.08v13.2h42.71L143.6 9.07z" fill="#C62C2C" fill-opacity=".24"/><path d="M166.82 13.14a4.86 4.86 0 10-3.73-8.97 4.86 4.86 0 003.73 8.97z" fill="#FDFF9F"/><path d="M161.52 5.22a4.86 4.86 0 106.87 6.88l-6.87-6.88z" fill="#FDFF9F"/><path d="M186.32 22.27H143.6v.91h42.72v-.9z" fill="#CDE1F9"/><path d="M142.45 40.54h-16.2v16.19h16.2v-16.2z" stroke="#6A6B66" stroke-miterlimit="10"/><path d="M131 49.46l4.95 3.9 10.07-9.71" stroke="#F3F4F6" stroke-width="4" stroke-miterlimit="10"/><path d="M129.9 48.36l4.95 3.9 10.07-9.7" stroke="url(#paint0_linear)" stroke-width="4" stroke-miterlimit="10"/><path d="M203.03 45.13h-52.8a.62.62 0 110-1.24h52.8a.62.62 0 110 1.24zm0 2.75h-52.8a.62.62 0 110-1.24h52.8a.62.62 0 110 1.24zm0 2.75h-52.8a.62.62 0 110-1.24h52.8a.62.62 0 110 1.24zm0 2.75h-52.8a.62.62 0 110-1.24h52.8a.62.62 0 110 1.24z" fill="#FE6A6A" fill-opacity=".76"/><path d="M142.45 66.61h-16.2v16.2h16.2V66.6z" stroke="#6A6B66" stroke-miterlimit="10"/><path d="M131 75.53l4.95 3.9 10.07-9.7" stroke="#F3F4F6" stroke-width="4" stroke-miterlimit="10"/><path d="M129.9 74.43l4.95 3.9 10.07-9.7" stroke="url(#paint1_linear)" stroke-width="4" stroke-miterlimit="10"/><path d="M203.03 71.2h-52.8a.62.62 0 110-1.24h52.8a.62.62 0 110 1.25zm.14 3.04h-52.8a.62.62 0 110-1.24h52.8a.62.62 0 110 1.24zm-.14 2.46h-52.8a.62.62 0 110-1.24h52.8a.62.62 0 110 1.25zm0 2.75h-52.8a.62.62 0 110-1.24h52.8a.62.62 0 110 1.24z" fill="#FE6A6A" fill-opacity=".76"/><path d="M142.45 92.68h-16.2v16.2h16.2v-16.2z" stroke="#6A6B66" stroke-miterlimit="10"/><path d="M131 101.6l4.95 3.9 10.07-9.7" stroke="#F3F4F6" stroke-width="4" stroke-miterlimit="10"/><path d="M129.9 100.5l4.95 3.9 10.07-9.7" stroke="url(#paint2_linear)" stroke-width="4" stroke-miterlimit="10"/><path d="M203.03 97.28h-52.8a.62.62 0 110-1.24h52.8a.62.62 0 110 1.24zm0 2.75h-52.8a.62.62 0 110-1.24h52.8a.62.62 0 110 1.24zm0 2.75h-52.8a.62.62 0 110-1.25h52.8a.62.62 0 110 1.25zm0 2.75h-52.8a.62.62 0 110-1.25h52.8a.62.62 0 110 1.25z" fill="#FE6A6A" fill-opacity=".76"/><path d="M142.45 118.75h-16.2v16.2h16.2v-16.2z" stroke="#6A6B66" stroke-miterlimit="10"/><path d="M131 127.68l4.95 3.89 10.07-9.7" stroke="#F3F4F6" stroke-width="4" stroke-miterlimit="10"/><path d="M129.9 126.58l4.95 3.89 10.07-9.7" stroke="url(#paint3_linear)" stroke-width="4" stroke-miterlimit="10"/><path d="M203.03 123.35h-52.8a.62.62 0 110-1.24h52.8a.62.62 0 110 1.24zm0 2.75h-52.8a.62.62 0 110-1.24h52.8a.62.62 0 110 1.24zm0 2.75h-52.8a.62.62 0 110-1.24h52.8a.62.62 0 110 1.24zm0 2.75h-52.8a.62.62 0 110-1.24h52.8a.62.62 0 110 1.24z" fill="#FE6A6A" fill-opacity=".76"/><defs><linearGradient id="paint0_linear" x1="137.41" y1="42.55" x2="137.41" y2="52.25" gradientUnits="userSpaceOnUse"><stop stop-color="#DA2C2C"/><stop offset="1" stop-color="#421B1B"/></linearGradient><linearGradient id="paint1_linear" x1="137.41" y1="68.62" x2="137.41" y2="78.32" gradientUnits="userSpaceOnUse"><stop stop-color="#DA2C2C"/><stop offset="1" stop-color="#421B1B"/></linearGradient><linearGradient id="paint2_linear" x1="137.41" y1="94.7" x2="137.41" y2="104.39" gradientUnits="userSpaceOnUse"><stop stop-color="#DA2C2C"/><stop offset="1" stop-color="#421B1B"/></linearGradient><linearGradient id="paint3_linear" x1="137.41" y1="120.77" x2="137.41" y2="130.47" gradientUnits="userSpaceOnUse"><stop stop-color="#DA2C2C"/><stop offset="1" stop-color="#421B1B"/></linearGradient></defs></svg>